<?xml version="1.0" encoding="UTF-8"?>
<svg width="68px" height="71px" viewBox="0 0 68 71" version="1.1" xmlns="http://www.w3.org/2000/svg" xmlns:xlink="http://www.w3.org/1999/xlink">
    <!-- Generator: Sketch 43.2 (39069) - http://www.bohemiancoding.com/sketch -->
    <title>Group 3</title>
    <desc>Created with Sketch.</desc>
    <defs></defs>
    <g id="Symbols" stroke="none" stroke-width="1" fill="none" fill-rule="evenodd">
        <g id="footer" transform="translate(-628.000000, -116.000000)" fill="#FFFFFF">
            <g id="Group-3" transform="translate(628.000000, 116.000000)">
                <polyline id="Fill-1" points="6.5537931 65.150535 3.06410345 65.1391399 33.8757241 15.7117449 64.9317931 65.1969918 17.8033966 65.1969918 19.3761897 62.4198107 59.432 62.4198107 33.8798276 21.1953992 6.5537931 65.150535"></polyline>
                <polyline id="Fill-2" points="67.8490517 70.9459465 0.146551724 70.9459465 1.71934483 67.8102593 65.4951379 67.8102593"></polyline>
                <path d="M28.1382241,45.3956922 L33.9976552,53.6316922 L39.8576724,45.3956922 L33.9976552,36.7713835 L28.1382241,45.3956922 Z M33.9976552,58.1862107 L24.922,45.4307539 L33.9976552,32.0725275 L43.0736034,45.4307539 L33.9976552,58.1862107 L33.9976552,58.1862107 Z" id="Fill-3"></path>
                <polyline id="Fill-4" points="34.17 13.8064321 33.6456379 13.8122757 31.2155172 2.41195473 33.9138276 0.20744856 36.6109655 2.44613992 34.17 13.8064321"></polyline>
                <polyline id="Fill-5" points="35.8254483 14.9386337 35.532931 14.505037 43.9719655 6.5550823 46.8226897 7.50233333 46.495 10.5074156 35.8254483 14.9386337"></polyline>
                <polyline id="Fill-6" points="35.6557414 16.2458519 35.9869483 15.8405967 45.3167241 20.4272551 44.9550345 22.6583498 42.9575345 23.4323374 35.6557414 16.2458519"></polyline>
                <polyline id="Fill-7" points="35.9931034 15.1679959 36.0203621 15.5159835 43.2837586 17.0075679 44.3433276 15.7117449 43.5472586 14.0609218 35.9931034 15.1679959"></polyline>
                <polyline id="Fill-8" points="34.7421379 14.0235226 35.068069 14.1503292 39.6686207 8.00313169 38.7509138 6.52235802 37.0303966 6.76165432 34.7421379 14.0235226"></polyline>
                <polyline id="Fill-9" points="31.8028966 14.9386337 32.0954138 14.505037 23.6563793 6.5550823 20.8056552 7.50233333 21.1333448 10.5074156 31.8028966 14.9386337"></polyline>
                <polyline id="Fill-10" points="31.9726034 16.2458519 31.6413966 15.8405967 22.3116207 20.4272551 22.5422931 22.6583498 24.6708103 23.4323374 31.9726034 16.2458519"></polyline>
                <polyline id="Fill-11" points="31.6352414 15.1679959 31.6079828 15.5159835 24.3445862 17.0075679 23.2850172 15.7117449 24.0810862 14.0609218 31.6352414 15.1679959"></polyline>
                <polyline id="Fill-12" points="32.8862069 14.0235226 32.5602759 14.1503292 27.9597241 8.00313169 28.8771379 6.52235802 30.5979483 6.76165432 32.8862069 14.0235226"></polyline>
            </g>
        </g>
    </g>
</svg>