<?xml version="1.0" encoding="utf-8"?>
<!-- Generator: Adobe Illustrator 21.0.2, SVG Export Plug-In . SVG Version: 6.00 Build 0)  -->
<svg version="1.1" id="Layer_1" xmlns="http://www.w3.org/2000/svg" xmlns:xlink="http://www.w3.org/1999/xlink" x="0px" y="0px"
	 viewBox="0 0 241.5 254.6" style="enable-background:new 0 0 241.5 254.6;" xml:space="preserve">
<g>
	<g>
		<g>
			<polygon points="28.5,226.7 16.6,226.7 121.7,57.5 227.7,226.9 66.9,226.9 72.2,217.4 208.9,217.4 121.7,76.3 			"/>
		</g>
	</g>
	<g>
		<g>
			<polyline points="237.6,246.6 6.6,246.6 12,235.8 229.6,235.8 			"/>
		</g>
	</g>
	<g>
		<path d="M122.1,199l-31-43.7l31-45.7l31,45.7L122.1,199z M102.1,155.2l20,28.2l20-28.2l-20-29.5L102.1,155.2z"/>
	</g>
	<g>
		<polygon points="122.7,51 120.9,51 112.6,12 121.8,4.4 131,12.1 		"/>
	</g>
	<g>
		<polygon points="128.4,54.9 127.4,53.4 156.1,26.2 165.9,29.4 164.8,39.7 		"/>
	</g>
	<g>
		<polygon points="127.8,59.3 128.9,58 160.7,73.7 159.5,81.3 152.7,83.9 		"/>
	</g>
	<g>
		<polygon points="128.9,55.7 129,56.8 153.8,61.9 157.4,57.5 154.7,51.9 		"/>
	</g>
	<g>
		<polygon points="124.7,51.7 125.8,52.2 141.5,31.1 138.3,26.1 132.5,26.9 		"/>
	</g>
	<g>
		<polygon points="114.6,54.9 115.6,53.4 86.8,26.2 77.1,29.4 78.2,39.7 		"/>
	</g>
	<g>
		<polygon points="115.2,59.3 114.1,58 82.2,73.7 83,81.3 90.3,83.9 		"/>
	</g>
	<g>
		<polygon points="114.1,55.7 114,56.8 89.2,61.9 85.6,57.5 88.3,51.9 		"/>
	</g>
	<g>
		<polygon points="118.3,51.7 117.2,52.2 101.5,31.1 104.7,26.1 110.5,26.9 		"/>
	</g>
</g>
</svg>
