<?xml version="1.0" encoding="UTF-8"?>
<svg width="170px" height="170px" viewBox="-4 -4 175 175" version="1.1" xmlns="http://www.w3.org/2000/svg" xmlns:xlink="http://www.w3.org/1999/xlink">
    <!-- Generator: Sketch 47.1 (45422) - http://www.bohemiancoding.com/sketch -->
    <title>playButton</title>
    <desc>Created with Sketch.</desc>
    <defs></defs>
    <g id="Page-1" stroke="none" stroke-width="1" fill="none" fill-rule="evenodd">
            <g id="playButton">
                <path d="M63.0747283,50 L63,116 L118,83 L63.0747283,50 Z M62.8900463,45 C63.2912829,45 63.7175903,45.0619694 64.1689815,45.18591 C64.6203726,45.3098506 65.0216032,45.4957587 65.3726852,45.7436399 L120.743056,78.9843444 C121.44522,79.3809544 121.996912,79.9386787 122.398148,80.6575342 C122.799385,81.3763898 123,82.1572039 123,83 C123,83.8427961 122.799385,84.6236102 122.398148,85.3424658 C121.996912,86.0613213 121.44522,86.6190456 120.743056,87.0156556 L65.2974537,120.25636 C64.9463717,120.504241 64.5451411,120.690149 64.09375,120.81409 C63.6423589,120.938031 63.2160514,121 62.8148148,121 C62.4135782,121 62.0123477,120.950425 61.6111111,120.851272 C61.2098745,120.75212 60.8337209,120.603393 60.4826389,120.405088 C59.6801657,119.958902 59.0657815,119.363996 58.6394676,118.620352 C58.2131537,117.876709 58,117.083501 58,116.240705 L58.0752315,49.7592955 C58.0752315,48.9164994 58.2883852,48.1232914 58.7146991,47.3796477 C59.1410129,46.6360041 59.7553972,46.0410981 60.5578704,45.5949119 C60.9089524,45.396607 61.285106,45.2478805 61.6863426,45.148728 C62.0875792,45.0495755 62.4888097,45 62.8900463,45 Z" id="î±" fill="#FFFFFF"></path>
                <circle id="Oval" stroke="#FFFFFF" stroke-width="6" cx="82" cy="82" r="82"></circle>
            </g>
    </g>
</svg>
